<?xml version="1.0" standalone="no"?>
<!DOCTYPE svg PUBLIC "-//W3C//DTD SVG 20010904//EN"
 "http://www.w3.org/TR/2001/REC-SVG-20010904/DTD/svg10.dtd">
<svg version="1.0" xmlns="http://www.w3.org/2000/svg"
 width="1000.000000pt" height="1000.000000pt" viewBox="0 0 1000.000000 1000.000000"
 preserveAspectRatio="xMidYMid meet">
<metadata>
Created by potrace 1.14, written by Peter Selinger 2001-2017
</metadata>
<g transform="translate(0.000000,1000.000000) scale(0.100000,-0.100000)"
fill="#000000" stroke="none">
<path d="M1305 5488 c-3 -7 -4 -231 -3 -498 l3 -485 200 0 200 0 5 120 5 119
127 -123 127 -123 28 20 c15 12 75 68 133 127 l105 105 5 -122 5 -123 200 0
200 0 0 495 0 495 -203 3 -203 2 -137 -130 -137 -130 -123 130 -124 130 -204
0 c-155 0 -206 -3 -209 -12z"/>
<path d="M3109 5473 c-28 -73 -339 -959 -339 -966 0 -4 100 -6 223 -5 l222 3
29 83 28 82 172 0 172 0 23 -72 c13 -40 28 -79 33 -85 8 -10 67 -13 235 -13
176 0 224 3 221 13 -225 635 -343 965 -351 975 -7 9 -86 12 -333 12 l-324 0
-11 -27z"/>
<path d="M4252 5488 c-19 -19 -17 -961 2 -977 9 -8 74 -11 212 -9 l199 3 3 88
3 87 109 0 108 0 48 -82 c26 -46 52 -86 58 -90 6 -4 113 -8 238 -8 l228 0 -85
138 -84 137 39 40 c83 86 123 223 102 350 -27 165 -129 269 -306 315 -73 18
-111 20 -471 20 -291 0 -394 -3 -403 -12z"/>
<path d="M5567 5493 c-4 -3 -7 -135 -7 -293 0 -209 3 -289 12 -298 8 -8 48
-12 115 -12 l103 0 0 -182 c0 -101 4 -189 8 -196 7 -9 71 -12 288 -10 l279 3
3 193 2 192 110 0 c105 0 110 1 115 23 3 12 4 148 3 302 l-3 280 -511 3 c-281
1 -514 -1 -517 -5z"/>
<path d="M6766 5484 c-9 -24 -7 -957 2 -972 7 -9 73 -12 298 -10 l289 3 0 495
0 495 -291 3 c-260 2 -292 1 -298 -14z"/>
<path d="M7545 5488 c-3 -7 -4 -231 -3 -498 l3 -485 205 0 205 0 5 107 5 107
155 -110 154 -109 211 2 210 3 0 495 0 495 -220 0 -220 0 -5 -102 -5 -101
-147 104 -147 104 -201 0 c-151 0 -202 -3 -205 -12z"/>
</g>
</svg>
