<?xml version="1.0" encoding="utf-8"?>
<!-- Generator: Adobe Illustrator 21.0.0, SVG Export Plug-In . SVG Version: 6.00 Build 0)  -->
<svg version="1.1" id="Ebene_1" xmlns="http://www.w3.org/2000/svg" xmlns:xlink="http://www.w3.org/1999/xlink" x="0px" y="0px"
	 viewBox="0 0 154.2 20.8" style="enable-background:new 0 0 154.2 20.8;" xml:space="preserve">
<style type="text/css">
	.st0{fill:#1D1D1B;}
</style>
<title>logo-black</title>
<path class="st0" d="M144.9,4.6V0.7c0-0.4,0.3-0.7,0.7-0.7h7.8c0.5,0,0.8,0.4,0.8,0.8c0,0,0,0,0,0V20c0,0.5-0.3,0.8-0.8,0.9
	c0,0,0,0,0,0h-7.9l-6.8-4.8v4c0.1,0.3-0.2,0.7-0.5,0.7c0,0-0.1,0-0.1,0h-7.3c-0.4,0-0.7-0.3-0.7-0.7V0.7c0-0.4,0.3-0.7,0.7-0.7h7.6
	L144.9,4.6L144.9,4.6z"/>
<path class="st0" d="M126.3,0.7v19.4c0,0.4-0.3,0.7-0.7,0.8h-11c-0.3,0-0.6-0.3-0.6-0.6V0.6c0-0.3,0.3-0.6,0.6-0.6h11.1
	C126,0,126.3,0.3,126.3,0.7L126.3,0.7L126.3,0.7z"/>
<path class="st0" d="M110.4,0.7V12c0,0.3-0.3,0.6-0.6,0.7h-4.3v7.6c0,0.3-0.2,0.6-0.6,0.6H94.3c-0.3,0-0.6-0.3-0.6-0.6v-7.6h-4.3
	c-0.3,0-0.6-0.3-0.6-0.6V0.6c0-0.3,0.3-0.6,0.6-0.6h20.2C110.1,0,110.4,0.3,110.4,0.7L110.4,0.7L110.4,0.7z"/>
<path class="st0" d="M61.5,0.6c0-0.3,0.3-0.6,0.6-0.6h13.5c6.2,0,10.6,2.8,10.6,8.5c0,2.6-1.1,5-3.1,6.6l3.5,5.8h-8.9
	c-0.3,0-0.7-0.2-0.8-0.5l-2-3.4h-4.7v3.2c0,0.3-0.3,0.6-0.6,0.6l0,0h-7.4c-0.4,0-0.7-0.3-0.7-0.7c0,0,0,0,0,0V0.6L61.5,0.6z"/>
<path class="st0" d="M51.7,0.6l7.2,20.2h-8.8c-0.3,0-0.6-0.3-0.7-0.6l-1-3H41l-1.1,3c-0.1,0.4-0.5,0.6-0.9,0.6h-8.4l7.1-20.2
	C37.9,0.3,38.2,0,38.6,0h12.3C51.2,0,51.6,0.3,51.7,0.6L51.7,0.6z"/>
<path class="st0" d="M19.6,0h7.8C27.7,0,28,0.3,28,0.7v19.6c0,0.3-0.3,0.6-0.6,0.6c0,0,0,0-0.1,0h-7.2c-0.3,0-0.6-0.3-0.6-0.6v-4.8
	L14,20.8l-5.5-5.4v4.7c0,0.4-0.3,0.7-0.6,0.7c0,0,0,0,0,0H0.6c-0.3,0-0.6-0.3-0.6-0.6V0.7C0,0.3,0.3,0,0.7,0h7.9l5.3,5.6L19.6,0
	L19.6,0z"/>
</svg>
